<?xml version="1.0" encoding="UTF-8" standalone="no"?>
<svg
   version="1.1"
   id="Layer_1"
   x="0"
   y="0"
   viewBox="0 0 265 265"
   xml:space="preserve"
   sodipodi:docname="mattermost-logo-horizontal.svg"
   width="265"
   height="265"
   inkscape:version="1.4 (86a8ad7, 2024-10-11)"
   xmlns:inkscape="http://www.inkscape.org/namespaces/inkscape"
   xmlns:sodipodi="http://sodipodi.sourceforge.net/DTD/sodipodi-0.dtd"
   xmlns="http://www.w3.org/2000/svg"
   xmlns:svg="http://www.w3.org/2000/svg"><defs
     id="defs1" /><sodipodi:namedview
     id="namedview1"
     pagecolor="#ffffff"
     bordercolor="#000000"
     borderopacity="0.25"
     inkscape:showpageshadow="2"
     inkscape:pageopacity="0.0"
     inkscape:pagecheckerboard="0"
     inkscape:deskcolor="#d1d1d1"
     inkscape:zoom="0.85047207"
     inkscape:cx="171.08146"
     inkscape:cy="164.02655"
     inkscape:window-width="1920"
     inkscape:window-height="1009"
     inkscape:window-x="-8"
     inkscape:window-y="-8"
     inkscape:window-maximized="1"
     inkscape:current-layer="Layer_1" /><style
     type="text/css"
     id="style1">.st0{fill-rule:evenodd;clip-rule:evenodd;fill:#1b1d21}</style><g
     id="XMLID_6_"
     transform="matrix(1.5521398,0,0,1.5523428,-72.91888,-69.743543)"><g
       id="XMLID_2_"><g
         id="XMLID_3_"
         transform="translate(-11.758176,1.1758176)"><path
           id="XMLID_4_"
           class="st0"
           d="m 192.4,62.7 0.9,17.4 c 14.1,15.6 19.7,37.7 12.7,58.5 -10.5,31 -45.1,47.3 -77.4,36.4 C 96.3,164.1 78.8,130.1 89.3,99.1 96.4,78.2 114.3,64 135.1,60.3 L 146.3,47 c -35.1,-0.9 -68.1,20.8 -80,55.8 -14.5,43 8.5,89.6 51.5,104.1 43,14.5 89.6,-8.5 104.1,-51.5 11.8,-34.8 -1.2,-72.2 -29.5,-92.7 z" /></g><path
         id="XMLID_5_"
         class="st0"
         d="m 160.54182,115.27582 -0.6,-24.400002 -0.5,-14 -0.3,-12.2 c 0,0 0.1,-5.9 -0.1,-7.2 0,-0.3 -0.1,-0.5 -0.2,-0.7 v -0.2 c -0.2,-0.4 -0.6,-0.7 -1,-0.9 -0.5,-0.2 -1,-0.1 -1.4,0.1 0,0 -0.1,0 -0.1,0.1 -0.2,0.1 -0.4,0.2 -0.6,0.4 -1,1 -4.5,5.7 -4.5,5.7 l -7.6,9.5 -8.9,10.9 -15.3,19.000002 c 0,0 -7,8.7 -5.5,19.5 1.5,10.8 9.6,16 15.8,18.1 6.2,2.1 15.8,2.8 23.5,-4.8 7.5,-7.7 7.3,-18.9 7.3,-18.9 z" /></g></g></svg>
