<?xml version="1.0" encoding="UTF-8" standalone="no"?>
<svg
   viewBox="0 0 80 80"
   version="1.1"
   id="svg2"
   sodipodi:docname="ubuntu-original.svg"
   width="80"
   height="80"
   inkscape:version="1.4 (86a8ad7, 2024-10-11)"
   xmlns:inkscape="http://www.inkscape.org/namespaces/inkscape"
   xmlns:sodipodi="http://sodipodi.sourceforge.net/DTD/sodipodi-0.dtd"
   xmlns="http://www.w3.org/2000/svg"
   xmlns:svg="http://www.w3.org/2000/svg">
  <defs
     id="defs2" />
  <sodipodi:namedview
     id="namedview2"
     pagecolor="#ffffff"
     bordercolor="#000000"
     borderopacity="0.25"
     inkscape:showpageshadow="2"
     inkscape:pageopacity="0.0"
     inkscape:pagecheckerboard="0"
     inkscape:deskcolor="#d1d1d1"
     inkscape:zoom="1.3671875"
     inkscape:cx="64"
     inkscape:cy="53.028571"
     inkscape:window-width="1920"
     inkscape:window-height="1009"
     inkscape:window-x="-8"
     inkscape:window-y="-8"
     inkscape:window-maximized="1"
     inkscape:current-layer="svg2" />
  <path
     fill="#e95420"
     d="M 80,-0.663 H -0.663 V 79.999999 H 80 Z"
     id="path1"
     style="stroke-width:0.793839" />
  <path
     fill="#ffffff"
     d="m 17.78,47.041429 c 4.611,0 8.35,-3.768 8.35,-8.416 0,-4.648 -3.739,-8.416 -8.35,-8.416 -4.612,0 -8.35,3.768 -8.35,8.416 0,4.648 3.738,8.416 8.35,8.416 z m 34.778,-18.454 c 4.612,0 8.35,-3.768 8.35,-8.416 0,-4.648 -3.738,-8.416 -8.35,-8.416 -4.611,0 -8.35,3.768 -8.35,8.416 0,4.648 3.739,8.416 8.35,8.416 z m -15.945,31.702 c -6.016,-1.299 -11.042,-5.17 -13.868,-10.662 a 11.934,11.934 0 0 1 -7.14,0.883 c 3.419,8.464 10.67,14.611 19.573,16.535 1.953,0.422 3.943,0.627 5.93,0.614 a 12.107,12.107 0 0 1 -2.444,-7.037 20.048,20.048 0 0 1 -2.048,-0.336 z m 14.066,8.461 c 4.612,0 8.35,-3.768 8.35,-8.416 0,-4.648 -3.738,-8.416 -8.35,-8.416 -4.611,0 -8.35,3.768 -8.35,8.416 0,4.648 3.739,8.416 8.35,8.416 z m 11.62,-11.507 c 2.597,-3.3 4.426,-7.2 5.305,-11.344 a 27.771,27.771 0 0 0 -3.937,-20.963 12.1,12.1 0 0 1 -4.695,5.542 20.736,20.736 0 0 1 1.93,13.975 20.658,20.658 0 0 1 -2.597,6.521 12.092,12.092 0 0 1 3.997,6.272 z m -45.162,-30.688 a 11.785,11.785 0 0 1 3.156,0.256 c 1.361,0.294 2.64,0.813 3.812,1.549 3.76,-5.45 9.826,-8.72 16.399,-8.842 a 12.213,12.213 0 0 1 2.534,-6.826 c -10.503,-0.838 -20.708,4.625 -25.905,13.866 l 0.003,-0.003 z"
     id="path2" />
</svg>
