<svg xmlns="http://www.w3.org/2000/svg" version="1.1" width="300" height="300" viewBox="0 0 79.375 79.374999" id="svg1" xmlns:svg="http://www.w3.org/2000/svg"><defs id="defs1"></defs><g id="layer1" transform="matrix(0.79375,0,0,0.79375,0.40898859,-3.6073696e-8)">
    <rect style="fill:#e8a020;fill-opacity:1;stroke-width:0.253756" id="rect20-3" width="15.345236" height="57.544632" x="75.541908" y="31.133633"></rect>
    <path id="rect20-3-3" style="fill:#d4601a;fill-opacity:1;stroke-width:0.269098" d="M 56.46852,5.7574268 V 70.407174 A 11.508927,11.508927 0 0 1 44.959305,81.915899 11.508927,11.508927 0 0 1 33.45059,70.407174 H 18.105297 A 26.854162,26.854162 0 0 0 44.959305,97.261192 26.854162,26.854162 0 0 0 71.813314,70.470616 h 4.99e-4 V 70.407221 5.7574747 Z"></path>
    <path style="fill:#c0391a;fill-opacity:1;stroke-width:0.253756" d="M 52.518369,68.862877 92.276368,-1.7490277e-7 H 76.988466 L 37.213721,68.891879 Z" id="path21"></path>
    <path style="fill:#d58010;fill-opacity:1;stroke-width:0.253756" d="M 51.101802,99.970998 90.889552,31.12595 75.571909,31.108111 35.797164,100 Z" id="path21-1"></path>
    <rect style="fill:#9b1b1b;fill-opacity:1;stroke-width:0.253756" id="rect20" width="15.345236" height="57.544632" x="37.198723" y="11.347149"></rect>
    <path style="fill:#6b0f0f;fill-opacity:1;stroke-width:0.253756" d="M 37.198942,11.348684 4.5486316,67.900673 H 19.83922 L 52.54177,11.314848 Z" id="path20"></path>
  </g></svg>