<svg xmlns="http://www.w3.org/2000/svg" version="1.1" xmlns:xlink="http://www.w3.org/1999/xlink" xmlns:svgjs="http://svgjs.dev/svgjs" width="512" height="512"><svg xmlns="http://www.w3.org/2000/svg" id="SvgjsSvg1042" width="512" height="512" version="1.1"><svg id="SvgjsSvg1041" width="512" height="512" version="1.1" viewBox="0 0 512 512"><g id="SvgjsG1040"><path id="SvgjsPath1039" d="M277.481 376.694q.424 2.54.424 5.078.423 2.117.423 5.08 0 5.078-2.963 9.31-1.27 2.116-3.385 4.232-2.117 1.693-5.08 2.963-10.58 5.925-22.43 4.232-5.925-1.693-10.58-5.502-.847-.846-1.27-.846-.423-.424-.846-1.27l-.847-.847q-.423-.846-1.27-1.27-2.115-2.115-3.385-3.808l-2.54-4.232q-.846-2.116-2.116-3.81-.846-2.115-2.116-4.232-.846-1.692-1.692-2.962-.847-1.693-1.27-3.386-1.693-3.809-2.116-6.771l-8.888-20.738q-29.202 0-58.404.423-28.779 0-57.981-.423l-8.888 20.738q-.846 1.693-1.27 3.385 0 1.693-.846 3.386l-1.693 3.386q-.423 1.27-1.27 2.962l-2.539 4.233q-.846 1.693-2.116 3.809-.846 2.116-2.116 4.232-1.27 1.693-3.386 3.809-.846.423-1.27 1.27l-.846.846q-.423.846-.846 1.27-.423 0-1.27.846-4.655 3.809-10.58 5.502-11.85 1.693-22.43-4.232-2.963-1.27-5.08-2.963-2.116-2.116-3.385-4.232-2.963-4.232-2.963-9.31v-5.08l.847-5.078q.846-3.81 2.116-7.618l1.27-3.81 88.029-216.687 2.54-6.772q.846-2.539 2.115-4.655 1.27-2.116 2.117-5.079 2.116-5.502 4.655-9.734 1.27-2.54 2.962-4.655l3.386-4.232q2.54-3.386 7.195-5.502 5.925-2.116 13.543-2.116 8.041 0 13.966 2.116 4.656 2.116 7.195 5.502 2.962 3.809 6.348 8.887 2.54 4.232 4.656 9.734.846 2.963 2.116 5.079 1.27 2.116 2.116 4.655l2.54 6.772 88.029 216.688 1.27 3.809q1.269 3.809 2.115 7.618zM177.178 273.005q-5.501-12.273-11.426-25.393-5.502-13.12-11.85-26.663l-3.386-7.618q-1.693-4.232-3.386-8.04-1.27 3.808-2.963 8.04l-3.385 7.618q-6.349 13.543-12.274 26.663-5.502 13.12-11.003 25.393l-7.618 18.622h74.91zm314.235 9.311q2.116 5.925 2.962 13.543 1.27 7.195 1.27 14.813t-1.27 15.236q-.846 7.194-2.54 12.696-6.77 23.7-27.085 39.783-20.315 15.659-46.554 22.854-25.817 7.194-53.75 5.078-27.508-2.116-49.093-13.966-13.543-7.618-23.277-18.622-9.734-11.003-16.505-24.546-2.54-4.656-3.386-10.58-.423-6.35 1.27-11.851 1.693-5.925 5.502-10.157 3.809-4.656 10.58-6.349 4.232-.846 9.31-.846 5.503 0 10.581 1.693 5.079 1.27 9.311 4.655 4.232 2.963 6.772 8.465 4.655 8.887 13.12 16.505 8.887 7.195 18.621 11.85 13.966 4.656 27.933 3.81 14.389-.847 25.816-6.349 11.85-5.502 19.045-14.813 7.195-9.734 7.195-22.007 0-10.157-2.963-16.506-2.963-6.771-8.464-11.003-5.079-4.656-12.697-7.618-7.195-2.963-16.082-5.079-10.158-2.116-20.738-2.962-10.157-.847-20.738-2.116-10.58-1.27-20.737-3.386-10.158-2.116-19.892-6.348-19.468-8.042-29.625-24.547-10.157-16.506-12.273-35.55-1.693-19.045 4.655-37.667 6.348-19.045 20.314-32.588 13.543-12.273 32.165-17.352 19.045-5.502 41.899-6.348 12.696-.423 25.393.846 13.12 1.27 24.97 4.232 12.273 2.963 22.43 7.618 10.58 4.656 18.199 11.004 5.502 4.232 11.004 11.427 5.501 6.771 8.464 14.813 2.962 7.618 1.693 14.812-.847 7.195-8.888 12.274-6.771 4.232-13.12 3.809-5.925-.847-11.426-3.81-5.502-3.385-10.581-7.617t-9.31-7.618q-11.428-8.465-28.356-11.427-16.93-2.963-31.742-1.27-9.31 1.27-17.352 4.232-8.041 2.963-13.966 8.042-5.502 5.078-8.888 12.696-2.962 7.195-2.116 16.506.423 6.771 3.81 11.427 3.808 4.655 8.887 7.618 5.502 2.962 11.85 4.655t12.696 2.54q19.045 2.539 38.09 3.808 19.045 1.27 37.243 8.465 18.622 7.194 31.742 19.468 13.12 12.273 18.622 29.625z" aria-label="AS"></path></g></svg></svg><style>@media (prefers-color-scheme: light) { :root { filter: none; } }
@media (prefers-color-scheme: dark) { :root { filter: invert(100%); } }
</style></svg>