<?xml version="1.0" encoding="UTF-8" standalone="no"?>
<svg
   width="240"
   height="240"
   viewBox="0 0 749.99705 749.99705"
   version="1.1"
   id="svg1"
   sodipodi:docname="ribbon.svg"
   xml:space="preserve"
   inkscape:version="1.3-beta (cedbd6c6ff, 2023-05-28)"
   xmlns:inkscape="http://www.inkscape.org/namespaces/inkscape"
   xmlns:sodipodi="http://sodipodi.sourceforge.net/DTD/sodipodi-0.dtd"
   xmlns="http://www.w3.org/2000/svg"
   xmlns:svg="http://www.w3.org/2000/svg"><defs
     id="defs1" /><sodipodi:namedview
     id="namedview1"
     pagecolor="#ffffff"
     bordercolor="#000000"
     borderopacity="0.25"
     inkscape:showpageshadow="2"
     inkscape:pageopacity="0.0"
     inkscape:pagecheckerboard="0"
     inkscape:deskcolor="#d1d1d1"
     inkscape:document-units="in"
     showguides="false"
     inkscape:zoom="2.5787362"
     inkscape:cx="95.783352"
     inkscape:cy="93.650524"
     inkscape:window-width="1920"
     inkscape:window-height="1009"
     inkscape:window-x="1358"
     inkscape:window-y="-8"
     inkscape:window-maximized="1"
     inkscape:current-layer="svg1" /><g
     id="g10"
     transform="matrix(1.8194993,0,0,1.8194993,-337.13347,-49.447924)"><path
       d="m 474,371 c 2.79,-5.37 10.66,-9.91 16.68,-6.92 4,2 4.79,6.29 10.33,5.08 7.73,-1.69 21.94,-15.23 27.99,-16.73 4.69,-1.17 12.53,1.85 17,3.57 0,0 0,3 0,3 -3.66,2.06 -13.43,7.92 -15.63,11.04 -4,5.68 3.74,9.21 8.63,8.59 10.16,-1.27 15.14,-12.41 23,-14.67 4.89,-1.4 11.72,1.82 16,4.04 -2.59,5.31 -13.12,12.44 -18,16.59 -1.95,1.66 -6.58,5 -5.09,8.02 1.04,2.1 7.71,4.23 10.09,5.39 -3.14,6.61 -9.4,11.34 -17,9.53 -4.2,-1 -7.47,-4.07 -12,-2.65 -5.63,1.76 -15.24,9.9 -20.04,13.78 -2.42,1.97 -5.86,5.26 -8.96,5.73 -3.94,0.59 -15.25,-4.45 -19,-6.39 3.32,-6.1 9.74,-6.36 14.96,-10.55 2.04,-1.65 4.74,-4.33 3.64,-7.24 -2.36,-6.24 -12.94,-5.31 -17.6,-2.88 -9.08,4.72 -17.2,15.79 -26.51,4.49 -1.56,-1.9 -2.42,-3.65 -3.49,-5.82 7.51,-4.28 11.66,-5.63 19,-11.16 1.91,-1.44 5.5,-3.83 4.66,-6.67 -0.68,-2.33 -6.55,-5.76 -8.66,-7.17 z"
       id="path9"
       style="fill:#0000ff" /><path
       d="m 457,335 c 4.42,-2.88 18.97,-11.74 23.91,-10.22 3.4,1.04 10.44,9.3 17.09,8.65 9.96,-0.99 13.33,-14.75 27,-8.43 -5.27,8.94 -23.23,13.04 -10.98,21.01 1.24,0.8 2.61,1.38 3.98,1.92 0,0 7,2.07 7,2.07 -4.34,5.2 -11.12,9.62 -17,12.98 -2.41,1.39 -5.1,3.04 -8,2.33 -4.65,-1.13 -7.09,-7.34 -17,-4.52 -3.71,1.05 -12.84,5.44 -12.24,10.12 0.39,3.07 5.76,5.81 8.24,7.09 -2,6.47 -9.23,9.53 -15,12.22 -2.44,1.14 -5.27,2.6 -8,1.57 -4.93,-1.84 -9.63,-11.45 -18,-11.59 -6.86,-0.12 -12.78,6.25 -19,7.4 -3.53,0.65 -8.11,-0.7 -9.12,-4.6 -0.79,-3.06 1.78,-4.33 4.14,-5.29 3.83,-1.55 11.06,-2.51 12.83,-6.81 2.31,-5.63 -9.07,-12.22 -12.85,-14.9 0,0 0,-2 0,-2 4.06,-1.42 18.16,-8.26 21,-7.87 5.37,0.73 7.77,9 17,7.54 3.91,-0.62 13.03,-4.88 12.38,-9.66 -0.41,-3.02 -4.99,-5.61 -7.38,-7.01 z"
       id="path8"
       style="fill:#ff0000" /><path
       d="m 376,309 c 5.3,-0.95 20.48,-2.61 22.7,-8.24 1.5,-3.79 -9.1,-10.81 -2.46,-14.02 1.24,-0.6 3.39,-0.72 4.76,-0.71 10.69,0.13 7.09,11.3 17,10.29 6.32,-0.64 19.43,-8.43 24,-7.26 2.42,0.62 5.68,3.52 7.56,5.21 2.45,2.21 2.98,2.79 4.44,5.73 -4.1,2 -12.55,4.35 -15.42,7.11 -4.62,4.45 1.8,10.09 6.42,10.74 12.21,1.73 16.45,-13.33 27.98,-2.74 1.96,1.8 3.48,3.74 5.02,5.89 0,0 -19,9.73 -19,9.73 -1.95,1.18 -5.67,3.28 -5.55,5.95 0.11,2.37 6.63,6.07 8.55,7.32 -2.65,5.32 -10.6,8.69 -15.96,5.26 -3.48,-2.22 -5.15,-6.32 -9.05,-6.74 -5.97,-0.65 -22.78,10.93 -28.99,8.86 -2.69,-0.89 -6.03,-4.3 -7.94,-6.38 -2.55,-2.76 -3.02,-3.47 -4.06,-7 4.67,-0.94 20.02,-2.53 17.6,-10 -0.55,-1.69 -2.33,-3.62 -3.64,-4.77 -1.2,-1.06 -2.46,-1.93 -3.96,-2.49 -7.6,-2.87 -18.36,7.15 -24.15,1.69 -1.45,-1.36 -2.7,-4.57 -3.5,-6.43 -1.12,-2.6 -1.73,-4.23 -2.35,-7 z"
       id="path7"
       style="fill:#ffe400;fill-opacity:1" /><path
       d="m 346,268 c 8.28813,7.25438 33.22369,56.43465 30.24,66 -9.024,13.90747 -68.50486,88.13656 -78.24,93.04 -4.52,0.95 -10.08,-7.89 -12.6,-11.04 L 259,383 c -2.83,-3.54 -8.48,-9.17 -7.52,-14 1.29152,-6.48569 43.67488,-40.28168 94.52,-101 z"
       id="path6"
       style="fill:#ff0000"
       sodipodi:nodetypes="cccsccc" /><path
       d="m 386,249 c 4.52,-1.14 14.46,-4.04 18.67,-2.52 2.92,1.06 7.27,8.72 9.33,11.48 0,0 23,28.04 23,28.04 -4.63,1.79 -15.3,6.99 -19.91,6.4 -5.03,-0.65 -4.51,-6.91 -11.13,-9.56 -4.66,-1.87 -16.08,-0.56 -16.63,5.6 -0.24,2.69 5.07,8.93 6.67,11.56 -4.48,1.79 -15.01,5.81 -19.74,4.23 -2.69,-0.89 -4.53,-5.82 -5.77,-8.23 0,0 -11.78,-21 -11.78,-21 0,0 -7.71,-12.58 -7.71,-12.58 -1.1,-1.58 -2.99,-3.9 -2.3,-5.99 0.96,-2.88 14.26,-4.29 17.3,-4.43 1.78,5.2 4.59,10.93 10,13.15 4.04,1.65 12.83,0.88 14.04,-4.25 0.75,-3.19 -2.67,-6.28 -4.04,-11.9 z"
       id="path5"
       style="fill:#00b200;fill-opacity:1" /><path
       d="m 340,185 c 3.47,0.01 7.86,-0.39 10.42,2.43 2.58,2.86 1.7,8.62 6.69,11.73 5.24,2.98 17.14,-0.75 20.71,0 4.38,1.25 8.48,9.93 10.18,13.84 -3.24,0.95 -10.74,1.69 -12.85,3.01 -5.73,3.57 -0.65,11.38 3.94,13.25 5.16,2.1 10,-1.62 14.87,-1.08 5.56,0.63 8.7,9.14 10.04,13.82 0,0 -16,3.39 -16,3.39 -1.86,0.54 -4.71,1.36 -5.31,3.33 -1.99,4.11 7.68,11.48 0,14.37 -8.49,3.4 -10.04,-9.34 -14.82,-12.07 -5.64,-3.22 -19.66,1.34 -22.74,0.63 -4.22,-0.98 -9.38,-12.71 -11.13,-16.65 7.04,-1.94 8.88,0.79 12.98,-0.75 7.33,-2.75 3.11,-10.45 -1.08,-13.94 -5.17,-4.29 -12.23,-1.02 -16.79,-2.91 C 323.6,215.12 324,205.94 324,201 c 4.39,0.36 17.69,3.12 19.14,-3.21 z"
       id="path4"
       style="fill:#0000ff" /><path
       d="m 306,142 c 3.02,0.4 13.57,1.59 15.57,3.01 3.3,2.34 2.52,8.11 6.82,12.83 4.68,5.03 12.23,5.22 13.2,0 0.5,-2.55 -1.83,-8.01 -2.59,-10.84 4.22,-0.66 14.27,-0.96 17.28,2.43 2.49,2.82 3.28,12.7 9.59,16.65 4.45,2.78 15.38,-3.27 16.55,4.96 0.89,6.19 -9.57,1.96 -12.21,8.09 -1.87,4.33 4.23,10.48 5.79,16.87 0,0 -19,1 -19,1 -1.31,-6.43 -3.16,-12.3 -10,-14.73 -3.14,-1.12 -7.96,-1.21 -9.56,2.41 -1.14,2.59 1.93,7.19 2.56,13.32 -4.04,0.53 -14.07,1.77 -17.02,-1.74 -1.02,-1.21 -1.69,-5.52 -2.11,-7.26 -1.24,-5.07 -2.57,-9.22 -6.91,-12.57 -5.71,-4.4 -16.89,0.08 -17.35,-10.38 -0.36,-8.21 10.1,0.94 13.88,-3.56 3.43,-4.11 -2.71,-16.04 -4.49,-20.49 z"
       id="path3"
       style="fill:#ff0000" /><path
       d="M 331.74978,57.071987 C 333.15888,87.556246 339.83771,115.92196 355,144 h -19 l 3,14 c -1.93,-0.01 -5.16,0.12 -6.89,-0.6 -5.65,-2.34 -3.27,-9.82 -7.54,-13.89 -4.88,-4.66 -15.05,-2.11 -17.12,-5.99 1.33783,-47.598914 13.59996,-63.872038 24.29978,-80.448013 z"
       id="path2"
       style="fill:#ffe400;fill-opacity:1"
       sodipodi:nodetypes="cccccccc" /><path
       d="m 443,54 c 3.79,4.96 8.92,25.72 11.19,33 5.27,16.93 11.01,36.23 10.81,54 -0.44393,37.85344 -29.23447,107.6465 -40,119 l -25.86,-38 c -2.58,-3.94 -9.37,-12.62 -9.76,-17 -0.61251,-6.75259 31.72394,-52.34828 48.39,-117 3.19366,-11.654592 5.56345,-26.394646 5.23,-34 z"
       id="path1"
       style="fill:#0000ff"
       sodipodi:nodetypes="cccccccc" /><path
       d="m 439.98,55 c 0.24632,8.703296 -2.76822,21.938782 -7.13,40 -0.75,2.6 -2.43,11.45 -5.16,12.14 -2.44,0.62 -5.91,-2.18 -7.86,-3.42 -4.47669,-2.8488 -17.93247,-10.438897 -33.14446,-9.66002 C 373.33717,94.543202 362.1649,101.84295 351,108.31 c -1.57,0.74 -3.62,1.74 -5.28,0.64 C 343.76,107.66 341.27,97.65 340.58,95 339.12452,89.430098 330.83989,56.097356 338.4,46.52 352.34239,32.876136 366.76033,33.837871 387.5302,33.795821 393.5541,33.783625 437.96985,32.128929 439.98,55 Z"
       id="Selection"
       style="fill:#00b200;fill-opacity:1"
       sodipodi:nodetypes="ccccsccccsc" /></g></svg>
